<svg xmlns="http://www.w3.org/2000/svg" xmlns:xlink="http://www.w3.org/1999/xlink" width="1080" zoomAndPan="magnify" viewBox="0 0 810 1012.49997" height="1350" preserveAspectRatio="xMidYMid meet" version="1.0"><defs><clipPath id="50e59fa6b6"><path d="M 0.199219 0 L 809.800781 0 L 809.800781 1012 L 0.199219 1012 Z M 0.199219 0 " clip-rule="nonzero"/></clipPath><clipPath id="60bd0d69a2"><path d="M 189.546875 612.757812 L 192.542969 612.757812 L 192.542969 614 L 189.546875 614 Z M 189.546875 612.757812 " clip-rule="nonzero"/></clipPath><clipPath id="c037a2b722"><path d="M 190.367188 612.890625 C 191.0625 613.269531 191.765625 613.636719 192.496094 613.964844 C 191.535156 613.757812 190.589844 613.488281 189.648438 613.175781 Z M 190.367188 612.890625 " clip-rule="nonzero"/></clipPath><clipPath id="a445143f2b"><path d="M 190.367188 612.890625 C 191.0625 613.269531 191.765625 613.636719 192.496094 613.964844 C 191.535156 613.757812 190.589844 613.488281 189.648438 613.175781 Z M 190.367188 612.890625 " clip-rule="nonzero"/></clipPath><clipPath id="2094e36274"><path d="M 232.355469 599.242188 L 234 599.242188 L 234 600.207031 L 232.355469 600.207031 Z M 232.355469 599.242188 " clip-rule="nonzero"/></clipPath><clipPath id="e3ef9935d3"><path d="M 233.976562 599.289062 C 233.671875 599.59375 233.355469 599.875 233.050781 600.167969 C 232.867188 599.984375 232.683594 599.824219 232.503906 599.667969 L 233.339844 599.460938 Z M 233.976562 599.289062 " clip-rule="nonzero"/></clipPath><clipPath id="613dfc4920"><path d="M 233.976562 599.289062 C 233.671875 599.59375 233.355469 599.875 233.050781 600.167969 C 232.867188 599.984375 232.683594 599.824219 232.503906 599.667969 L 233.339844 599.460938 Z M 233.976562 599.289062 " clip-rule="nonzero"/></clipPath><clipPath id="af7e183ffd"><path d="M 164.738281 533 L 276 533 L 276 658.261719 L 164.738281 658.261719 Z M 164.738281 533 " clip-rule="nonzero"/></clipPath><clipPath id="858b674503"><path d="M 274.296875 641.132812 C 275.40625 646.5 275.941406 651.839844 275.941406 657.035156 C 275.941406 657.449219 275.941406 657.859375 275.917969 658.261719 L 260.820312 658.261719 C 260.292969 652.667969 259.199219 646.914062 257.523438 641.132812 C 256.976562 639.210938 256.355469 637.285156 255.664062 635.363281 C 252.625 626.859375 248.574219 619.160156 243.820312 612.488281 C 239.347656 613.414062 234.996094 614.375 230.726562 615.371094 C 226.328125 616.410156 222.023438 617.480469 217.839844 618.585938 C 212.128906 620.109375 206.648438 621.679688 201.378906 623.320312 C 194.757812 625.375 188.507812 627.542969 182.636719 629.804688 L 182.636719 658.261719 L 165.054688 658.261719 C 164.984375 657.945312 164.910156 657.632812 164.839844 657.300781 L 164.839844 578.214844 C 164.875 578.191406 164.910156 578.167969 164.945312 578.140625 C 170.164062 574.367188 175.839844 570.746094 181.957031 567.265625 C 182.175781 567.128906 182.402344 567.011719 182.636719 566.886719 L 182.636719 616.03125 C 184.90625 615.058594 187.253906 614.109375 189.648438 613.175781 L 190.367188 612.890625 C 193.917969 611.515625 197.589844 610.179688 201.378906 608.878906 C 206.648438 607.0625 212.128906 605.324219 217.839844 603.660156 C 222.023438 602.441406 226.328125 601.246094 230.726562 600.117188 C 231.324219 599.957031 231.90625 599.8125 232.503906 599.667969 L 233.339844 599.460938 L 233.976562 599.289062 C 236.550781 596.832031 239.035156 594.09375 241.355469 591.125 C 247.164062 583.753906 252.117188 574.894531 255.664062 564.953125 C 257.109375 560.925781 258.25 556.875 259.125 552.867188 C 260.34375 547.300781 261.027344 541.785156 261.167969 536.457031 C 265.765625 535.25 270.457031 534.109375 275.222656 533.027344 C 275.695312 536.359375 275.941406 539.792969 275.941406 543.28125 C 275.941406 545.195312 275.867188 547.128906 275.722656 549.078125 C 275.199219 556.132812 273.691406 563.347656 271.136719 570.5 C 267.992188 579.300781 263.550781 587.160156 258.203125 593.839844 C 256.417969 596.078125 254.523438 598.183594 252.539062 600.167969 C 255.332031 602.941406 257.949219 605.992188 260.355469 609.304688 C 264.742188 615.351562 268.425781 622.234375 271.136719 629.828125 C 272.476562 633.585938 273.53125 637.371094 274.296875 641.132812 " clip-rule="nonzero"/></clipPath><clipPath id="b58e583114"><path d="M 274.296875 641.132812 C 275.40625 646.5 275.941406 651.839844 275.941406 657.035156 C 275.941406 657.449219 275.941406 657.859375 275.917969 658.261719 L 260.820312 658.261719 C 260.292969 652.667969 259.199219 646.914062 257.523438 641.132812 C 256.976562 639.210938 256.355469 637.285156 255.664062 635.363281 C 252.625 626.859375 248.574219 619.160156 243.820312 612.488281 C 239.347656 613.414062 234.996094 614.375 230.726562 615.371094 C 226.328125 616.410156 222.023438 617.480469 217.839844 618.585938 C 212.128906 620.109375 206.648438 621.679688 201.378906 623.320312 C 194.757812 625.375 188.507812 627.542969 182.636719 629.804688 L 182.636719 658.261719 L 165.054688 658.261719 C 164.984375 657.945312 164.910156 657.632812 164.839844 657.300781 L 164.839844 578.214844 C 164.875 578.191406 164.910156 578.167969 164.945312 578.140625 C 170.164062 574.367188 175.839844 570.746094 181.957031 567.265625 C 182.175781 567.128906 182.402344 567.011719 182.636719 566.886719 L 182.636719 616.03125 C 184.90625 615.058594 187.253906 614.109375 189.648438 613.175781 L 190.367188 612.890625 C 193.917969 611.515625 197.589844 610.179688 201.378906 608.878906 C 206.648438 607.0625 212.128906 605.324219 217.839844 603.660156 C 222.023438 602.441406 226.328125 601.246094 230.726562 600.117188 C 231.324219 599.957031 231.90625 599.8125 232.503906 599.667969 L 233.339844 599.460938 L 233.976562 599.289062 C 236.550781 596.832031 239.035156 594.09375 241.355469 591.125 C 247.164062 583.753906 252.117188 574.894531 255.664062 564.953125 C 257.109375 560.925781 258.25 556.875 259.125 552.867188 C 260.34375 547.300781 261.027344 541.785156 261.167969 536.457031 C 265.765625 535.25 270.457031 534.109375 275.222656 533.027344 C 275.695312 536.359375 275.941406 539.792969 275.941406 543.28125 C 275.941406 545.195312 275.867188 547.128906 275.722656 549.078125 C 275.199219 556.132812 273.691406 563.347656 271.136719 570.5 C 267.992188 579.300781 263.550781 587.160156 258.203125 593.839844 C 256.417969 596.078125 254.523438 598.183594 252.539062 600.167969 C 255.332031 602.941406 257.949219 605.992188 260.355469 609.304688 C 264.742188 615.351562 268.425781 622.234375 271.136719 629.828125 C 272.476562 633.585938 273.53125 637.371094 274.296875 641.132812 " clip-rule="nonzero"/></clipPath><clipPath id="a33686d717"><path d="M 161.425781 353.765625 L 224.613281 353.765625 L 224.613281 545.707031 L 161.425781 545.707031 Z M 161.425781 353.765625 " clip-rule="nonzero"/></clipPath><clipPath id="2406c8d0f2"><path d="M 224.542969 353.824219 L 224.542969 370.957031 L 201.714844 370.957031 L 201.714844 536.214844 C 200.449219 536.785156 199.210938 537.355469 197.96875 537.941406 C 192.730469 540.398438 187.71875 542.957031 182.957031 545.59375 L 182.957031 370.957031 L 161.425781 370.957031 L 161.425781 353.824219 Z M 224.542969 353.824219 " clip-rule="nonzero"/></clipPath><clipPath id="96eb9ad179"><path d="M 224.542969 353.824219 L 224.542969 370.957031 L 201.714844 370.957031 L 201.714844 536.214844 C 200.449219 536.785156 199.210938 537.355469 197.96875 537.941406 C 192.730469 540.398438 187.71875 542.957031 182.957031 545.59375 L 182.957031 370.957031 L 161.425781 370.957031 L 161.425781 353.824219 Z M 224.542969 353.824219 " clip-rule="nonzero"/></clipPath><clipPath id="ffb65a3a30"><path d="M 245.476562 353.101562 L 310.058594 353.101562 L 310.058594 520.496094 L 245.476562 520.496094 Z M 245.476562 353.101562 " clip-rule="nonzero"/></clipPath><clipPath id="2b8706a754"><path d="M 310.03125 353.101562 L 310.03125 505.59375 C 308.386719 505.863281 306.757812 506.128906 305.140625 506.414062 C 301.023438 507.113281 296.9375 507.859375 292.910156 508.648438 L 292.910156 439.453125 C 291.515625 439.804688 290.113281 440.160156 288.726562 440.523438 C 279.78125 442.882812 271.101562 445.5 262.699219 448.359375 L 262.699219 515.542969 C 257.5 516.910156 252.40625 518.359375 247.421875 519.867188 C 246.8125 520.046875 246.195312 520.242188 245.585938 520.425781 L 245.585938 353.101562 L 262.703125 353.101562 L 262.703125 431.328125 C 271.101562 428.296875 279.785156 425.53125 288.730469 423.050781 C 290.117188 422.660156 291.515625 422.285156 292.914062 421.910156 L 292.914062 353.101562 Z M 310.03125 353.101562 " clip-rule="nonzero"/></clipPath><clipPath id="f9d51d314d"><path d="M 310.03125 353.101562 L 310.03125 505.59375 C 308.386719 505.863281 306.757812 506.128906 305.140625 506.414062 C 301.023438 507.113281 296.9375 507.859375 292.910156 508.648438 L 292.910156 439.453125 C 291.515625 439.804688 290.113281 440.160156 288.726562 440.523438 C 279.78125 442.882812 271.101562 445.5 262.699219 448.359375 L 262.699219 515.542969 C 257.5 516.910156 252.40625 518.359375 247.421875 519.867188 C 246.8125 520.046875 246.195312 520.242188 245.585938 520.425781 L 245.585938 353.101562 L 262.703125 353.101562 L 262.703125 431.328125 C 271.101562 428.296875 279.785156 425.53125 288.730469 423.050781 C 290.117188 422.660156 291.515625 422.285156 292.914062 421.910156 L 292.914062 353.101562 Z M 310.03125 353.101562 " clip-rule="nonzero"/></clipPath><clipPath id="0da4681d56"><path d="M 331 353.101562 L 397.382812 353.101562 L 397.382812 503.105469 L 331 503.105469 Z M 331 353.101562 " clip-rule="nonzero"/></clipPath><clipPath id="b6c2932c8d"><path d="M 348.191406 370.234375 L 348.191406 411.628906 C 348.253906 411.617188 348.296875 411.617188 348.363281 411.601562 C 358.746094 410.214844 369.332031 409.167969 380.105469 408.5 L 380.105469 426.75 C 369.332031 427.394531 358.746094 428.378906 348.363281 429.695312 C 348.296875 429.707031 348.253906 429.707031 348.191406 429.71875 L 348.191406 484.179688 C 348.253906 484.164062 348.296875 484.152344 348.363281 484.152344 C 358.746094 483.058594 369.332031 482.246094 380.105469 481.707031 C 383.980469 481.511719 387.871094 481.363281 391.796875 481.246094 C 392.261719 481.234375 392.722656 481.222656 393.195312 481.207031 C 394.535156 481.171875 395.871094 481.136719 397.21875 481.109375 L 397.21875 498.242188 C 395.871094 498.269531 394.53125 498.292969 393.195312 498.328125 C 392.722656 498.339844 392.261719 498.355469 391.796875 498.363281 C 387.875 498.472656 383.984375 498.617188 380.105469 498.800781 C 369.332031 499.289062 358.746094 500.054688 348.363281 501.074219 C 348.296875 501.074219 348.253906 501.089844 348.191406 501.089844 C 342.71875 501.636719 337.296875 502.246094 331.960938 502.925781 C 331.667969 502.960938 331.367188 503 331.074219 503.050781 L 331.074219 353.101562 L 397.21875 353.101562 L 397.21875 370.234375 Z M 348.191406 370.234375 " clip-rule="nonzero"/></clipPath><clipPath id="87d6e28f90"><path d="M 348.191406 370.234375 L 348.191406 411.628906 C 348.253906 411.617188 348.296875 411.617188 348.363281 411.601562 C 358.746094 410.214844 369.332031 409.167969 380.105469 408.5 L 380.105469 426.75 C 369.332031 427.394531 358.746094 428.378906 348.363281 429.695312 C 348.296875 429.707031 348.253906 429.707031 348.191406 429.71875 L 348.191406 484.179688 C 348.253906 484.164062 348.296875 484.152344 348.363281 484.152344 C 358.746094 483.058594 369.332031 482.246094 380.105469 481.707031 C 383.980469 481.511719 387.871094 481.363281 391.796875 481.246094 C 392.261719 481.234375 392.722656 481.222656 393.195312 481.207031 C 394.535156 481.171875 395.871094 481.136719 397.21875 481.109375 L 397.21875 498.242188 C 395.871094 498.269531 394.53125 498.292969 393.195312 498.328125 C 392.722656 498.339844 392.261719 498.355469 391.796875 498.363281 C 387.875 498.472656 383.984375 498.617188 380.105469 498.800781 C 369.332031 499.289062 358.746094 500.054688 348.363281 501.074219 C 348.296875 501.074219 348.253906 501.089844 348.191406 501.089844 C 342.71875 501.636719 337.296875 502.246094 331.960938 502.925781 C 331.667969 502.960938 331.367188 503 331.074219 503.050781 L 331.074219 353.101562 L 397.21875 353.101562 L 397.21875 370.234375 Z M 348.191406 370.234375 " clip-rule="nonzero"/></clipPath><clipPath id="d6ea1f3904"><path d="M 294.679688 519 L 396.949219 519 L 396.949219 658.261719 L 294.679688 658.261719 Z M 294.679688 519 " clip-rule="nonzero"/></clipPath><clipPath id="618f0ca49b"><path d="M 378.191406 580.6875 C 366.8125 581.039062 355.628906 581.621094 344.6875 582.414062 C 339.15625 582.8125 333.683594 583.265625 328.289062 583.765625 C 323.765625 584.191406 319.292969 584.640625 314.867188 585.140625 L 314.867188 542.296875 C 319.292969 541.6875 323.765625 541.117188 328.289062 540.59375 C 333.683594 539.976562 339.15625 539.414062 344.6875 538.914062 C 355.628906 537.929688 366.8125 537.210938 378.191406 536.773438 Z M 389.523438 519.300781 C 389.046875 519.3125 388.582031 519.324219 388.121094 519.335938 C 384.792969 519.421875 381.484375 519.546875 378.191406 519.679688 C 366.8125 520.167969 355.628906 520.933594 344.6875 521.988281 C 339.15625 522.515625 333.683594 523.125 328.289062 523.789062 C 323.765625 524.347656 319.292969 524.957031 314.867188 525.632812 C 311.5 526.117188 308.167969 526.652344 304.863281 527.199219 C 301.445312 527.773438 298.066406 528.367188 294.710938 529 L 294.710938 658.261719 L 314.867188 658.261719 L 314.867188 601.804688 C 319.292969 601.359375 323.765625 600.945312 328.289062 600.566406 C 333.683594 600.117188 339.15625 599.707031 344.6875 599.335938 C 355.628906 598.632812 366.8125 598.109375 378.191406 597.78125 L 378.191406 658.261719 L 396.9375 658.261719 L 396.9375 519.15625 C 394.460938 519.195312 391.988281 519.238281 389.523438 519.300781 " clip-rule="nonzero"/></clipPath><clipPath id="933e3b5e3b"><path d="M 378.191406 580.6875 C 366.8125 581.039062 355.628906 581.621094 344.6875 582.414062 C 339.15625 582.8125 333.683594 583.265625 328.289062 583.765625 C 323.765625 584.191406 319.292969 584.640625 314.867188 585.140625 L 314.867188 542.296875 C 319.292969 541.6875 323.765625 541.117188 328.289062 540.59375 C 333.683594 539.976562 339.15625 539.414062 344.6875 538.914062 C 355.628906 537.929688 366.8125 537.210938 378.191406 536.773438 Z M 389.523438 519.300781 C 389.046875 519.3125 388.585938 519.324219 388.121094 519.335938 C 384.792969 519.421875 381.484375 519.546875 378.191406 519.679688 C 366.8125 520.167969 355.628906 520.933594 344.6875 521.988281 C 339.15625 522.515625 333.683594 523.125 328.289062 523.789062 C 323.765625 524.347656 319.292969 524.957031 314.867188 525.632812 C 311.5 526.117188 308.167969 526.652344 304.863281 527.199219 C 301.445312 527.773438 298.066406 528.367188 294.710938 529 L 294.710938 658.261719 L 314.867188 658.261719 L 314.867188 601.804688 C 319.292969 601.359375 323.765625 600.945312 328.289062 600.566406 C 333.683594 600.117188 339.15625 599.707031 344.6875 599.335938 C 355.628906 598.632812 366.8125 598.109375 378.191406 597.78125 L 378.191406 658.261719 L 396.9375 658.261719 L 396.9375 519.15625 C 394.460938 519.195312 391.988281 519.238281 389.523438 519.300781 " clip-rule="nonzero"/></clipPath><clipPath id="67ea557b04"><path d="M 415.535156 354.03125 L 484.085938 354.03125 L 484.085938 499.640625 L 415.535156 499.640625 Z M 415.535156 354.03125 " clip-rule="nonzero"/></clipPath><clipPath id="0a48447dfc"><path d="M 466.972656 411.902344 C 455.765625 410.527344 444.3125 409.554688 432.652344 409.003906 L 432.652344 371.164062 L 466.972656 371.164062 Z M 415.535156 354.03125 L 415.535156 499.082031 C 418.222656 499.089844 420.910156 499.140625 423.582031 499.191406 C 426.625 499.25 429.640625 499.335938 432.652344 499.433594 L 432.652344 427.289062 C 444.3125 427.800781 455.765625 428.726562 466.972656 430.03125 C 472.75 430.699219 478.449219 431.464844 484.085938 432.339844 L 484.085938 354.03125 Z M 415.535156 354.03125 " clip-rule="nonzero"/></clipPath><clipPath id="088926a1c9"><path d="M 466.972656 411.902344 C 455.765625 410.527344 444.3125 409.554688 432.652344 409.003906 L 432.652344 371.164062 L 466.972656 371.164062 Z M 415.535156 354.03125 L 415.535156 499.082031 C 418.222656 499.089844 420.910156 499.140625 423.582031 499.191406 C 426.625 499.25 429.640625 499.335938 432.652344 499.433594 L 432.652344 427.289062 C 444.3125 427.800781 455.765625 428.726562 466.972656 430.03125 C 472.75 430.699219 478.449219 431.464844 484.085938 432.339844 L 484.085938 354.03125 Z M 415.535156 354.03125 " clip-rule="nonzero"/></clipPath><clipPath id="65433f0d36"><path d="M 415.707031 519.179688 L 517 519.179688 L 517 658.261719 L 415.707031 658.261719 Z M 415.707031 519.179688 " clip-rule="nonzero"/></clipPath><clipPath id="be07f4939a"><path d="M 498.207031 641.128906 L 435.5 641.128906 L 435.5 536.859375 C 457.238281 537.769531 478.230469 539.683594 498.207031 542.480469 Z M 498.394531 525.851562 C 498.328125 525.839844 498.269531 525.832031 498.207031 525.824219 C 478.230469 522.816406 457.238281 520.75 435.5 519.765625 C 429.941406 519.507812 424.351562 519.324219 418.710938 519.214844 C 417.714844 519.203125 416.703125 519.179688 415.707031 519.179688 L 415.707031 658.261719 L 495.03125 658.261719 C 507.125 658.261719 516.925781 648.453125 516.925781 636.355469 L 516.925781 547.507812 C 516.925781 536.703125 509.070312 527.472656 498.394531 525.851562 " clip-rule="nonzero"/></clipPath><clipPath id="5138c239bd"><path d="M 498.207031 641.128906 L 435.5 641.128906 L 435.5 536.859375 C 457.238281 537.769531 478.230469 539.683594 498.207031 542.480469 Z M 498.394531 525.851562 C 498.328125 525.839844 498.269531 525.832031 498.207031 525.824219 C 478.230469 522.816406 457.238281 520.75 435.5 519.765625 C 429.941406 519.507812 424.351562 519.324219 418.710938 519.214844 C 417.714844 519.203125 416.703125 519.179688 415.707031 519.179688 L 415.707031 658.261719 L 495.03125 658.261719 C 507.125 658.261719 516.925781 648.453125 516.925781 636.355469 L 516.925781 547.507812 C 516.925781 536.703125 509.070312 527.472656 498.394531 525.851562 " clip-rule="nonzero"/></clipPath><clipPath id="98a4f1a399"><path d="M 499.765625 353.101562 L 568.386719 353.101562 L 568.386719 508 L 499.765625 508 Z M 499.765625 353.101562 " clip-rule="nonzero"/></clipPath><clipPath id="093c1ba28c"><path d="M 551.199219 431.644531 C 540.222656 427.664062 528.753906 424.121094 516.878906 421.078125 L 516.878906 370.234375 L 551.199219 370.234375 Z M 499.765625 353.101562 L 499.765625 505.082031 C 505.5625 505.984375 511.261719 506.96875 516.878906 508.027344 L 516.878906 438.652344 C 528.753906 441.546875 540.222656 444.890625 551.199219 448.652344 C 557.042969 450.648438 562.746094 452.777344 568.316406 455.015625 L 568.316406 353.101562 Z M 499.765625 353.101562 " clip-rule="nonzero"/></clipPath><clipPath id="c72b16e933"><path d="M 551.199219 431.644531 C 540.222656 427.664062 528.753906 424.121094 516.878906 421.078125 L 516.878906 370.234375 L 551.199219 370.234375 Z M 499.765625 353.101562 L 499.765625 505.082031 C 505.5625 505.984375 511.261719 506.96875 516.878906 508.027344 L 516.878906 438.652344 C 528.753906 441.546875 540.222656 444.890625 551.199219 448.652344 C 557.042969 450.648438 562.746094 452.777344 568.316406 455.015625 L 568.316406 353.101562 Z M 499.765625 353.101562 " clip-rule="nonzero"/></clipPath><clipPath id="40320bd329"><path d="M 585.113281 353.101562 L 646.902344 353.101562 L 646.902344 558.621094 L 585.113281 558.621094 Z M 585.113281 353.101562 " clip-rule="nonzero"/></clipPath><clipPath id="2181a47ba9"><path d="M 646.902344 353.101562 L 646.902344 558.511719 C 641.625 554.628906 635.875 550.882812 629.699219 547.28125 C 621.3125 542.402344 612.132812 537.804688 602.238281 533.519531 C 596.742188 531.160156 591.042969 528.886719 585.117188 526.707031 L 585.117188 353.101562 L 602.238281 353.101562 L 602.238281 518.832031 C 612.132812 523.390625 621.3125 528.308594 629.699219 533.542969 L 629.699219 353.101562 Z M 646.902344 353.101562 " clip-rule="nonzero"/></clipPath><clipPath id="4826bbe259"><path d="M 646.902344 353.101562 L 646.902344 558.511719 C 641.625 554.628906 635.875 550.882812 629.699219 547.28125 C 621.3125 542.402344 612.132812 537.804688 602.238281 533.519531 C 596.742188 531.160156 591.042969 528.886719 585.117188 526.707031 L 585.117188 353.101562 L 602.238281 353.101562 L 602.238281 518.832031 C 612.132812 523.390625 621.3125 528.308594 629.699219 533.542969 L 629.699219 353.101562 Z M 646.902344 353.101562 " clip-rule="nonzero"/></clipPath><clipPath id="d59b2220bb"><path d="M 535.683594 532.824219 L 646.871094 532.824219 L 646.871094 658.335938 L 535.683594 658.335938 Z M 535.683594 532.824219 " clip-rule="nonzero"/></clipPath><clipPath id="5de5b213cc"><path d="M 628.769531 615.898438 C 608.238281 607.234375 582.984375 599.789062 554.285156 593.996094 L 554.285156 553.28125 C 582.984375 560.488281 608.238281 569.722656 628.769531 580.5 Z M 628.769531 566.71875 C 608.238281 555.132812 582.984375 545.207031 554.285156 537.453125 C 548.230469 535.8125 542.027344 534.277344 535.6875 532.84375 L 535.6875 658.261719 L 554.285156 658.261719 L 554.285156 609.824219 C 582.984375 615.082031 608.238281 621.835938 628.769531 629.683594 L 628.769531 658.261719 L 646.800781 658.261719 L 646.800781 578.164062 C 641.289062 574.199219 635.265625 570.382812 628.769531 566.71875 " clip-rule="nonzero"/></clipPath><clipPath id="c0df52e0e4"><path d="M 628.769531 615.898438 C 608.238281 607.234375 582.984375 599.789062 554.285156 593.996094 L 554.285156 553.28125 C 582.984375 560.488281 608.238281 569.722656 628.769531 580.5 Z M 628.769531 566.71875 C 608.238281 555.132812 582.984375 545.207031 554.285156 537.453125 C 548.230469 535.8125 542.027344 534.277344 535.6875 532.84375 L 535.6875 658.261719 L 554.285156 658.261719 L 554.285156 609.824219 C 582.984375 615.082031 608.238281 621.835938 628.769531 629.683594 L 628.769531 658.261719 L 646.796875 658.261719 L 646.796875 578.164062 C 641.289062 574.199219 635.265625 570.382812 628.769531 566.71875 " clip-rule="nonzero"/></clipPath></defs><g clip-path="url(#50e59fa6b6)"><path fill="#ffffff" d="M 0.199219 0 L 809.800781 0 L 809.800781 1012 L 0.199219 1012 Z M 0.199219 0 " fill-opacity="1" fill-rule="nonzero"/><path fill="#002c3e" d="M 0.199219 0 L 809.800781 0 L 809.800781 1012 L 0.199219 1012 Z M 0.199219 0 " fill-opacity="1" fill-rule="nonzero"/></g><g clip-path="url(#60bd0d69a2)"><g clip-path="url(#c037a2b722)"><g clip-path="url(#a445143f2b)"><path fill="#fff2c3" d="M 52.414062 284.214844 L 757.304688 284.214844 L 757.304688 727.875 L 52.414062 727.875 Z M 52.414062 284.214844 " fill-opacity="1" fill-rule="nonzero"/></g></g></g><g clip-path="url(#2094e36274)"><g clip-path="url(#e3ef9935d3)"><g clip-path="url(#613dfc4920)"><path fill="#fff2c3" d="M 52.414062 284.214844 L 757.304688 284.214844 L 757.304688 727.875 L 52.414062 727.875 Z M 52.414062 284.214844 " fill-opacity="1" fill-rule="nonzero"/></g></g></g><g clip-path="url(#af7e183ffd)"><g clip-path="url(#858b674503)"><g clip-path="url(#b58e583114)"><path fill="#fff2c3" d="M 52.414062 284.214844 L 757.304688 284.214844 L 757.304688 727.875 L 52.414062 727.875 Z M 52.414062 284.214844 " fill-opacity="1" fill-rule="nonzero"/></g></g></g><g clip-path="url(#a33686d717)"><g clip-path="url(#2406c8d0f2)"><g clip-path="url(#96eb9ad179)"><path fill="#fff2c3" d="M 52.414062 284.214844 L 757.304688 284.214844 L 757.304688 727.875 L 52.414062 727.875 Z M 52.414062 284.214844 " fill-opacity="1" fill-rule="nonzero"/></g></g></g><g clip-path="url(#ffb65a3a30)"><g clip-path="url(#2b8706a754)"><g clip-path="url(#f9d51d314d)"><path fill="#fff2c3" d="M 52.414062 284.214844 L 757.304688 284.214844 L 757.304688 727.875 L 52.414062 727.875 Z M 52.414062 284.214844 " fill-opacity="1" fill-rule="nonzero"/></g></g></g><g clip-path="url(#0da4681d56)"><g clip-path="url(#b6c2932c8d)"><g clip-path="url(#87d6e28f90)"><path fill="#fff2c3" d="M 52.414062 284.214844 L 757.308594 284.214844 L 757.308594 727.875 L 52.414062 727.875 Z M 52.414062 284.214844 " fill-opacity="1" fill-rule="nonzero"/></g></g></g><g clip-path="url(#d6ea1f3904)"><g clip-path="url(#618f0ca49b)"><g clip-path="url(#933e3b5e3b)"><path fill="#fff2c3" d="M 52.414062 284.214844 L 757.308594 284.214844 L 757.308594 727.875 L 52.414062 727.875 Z M 52.414062 284.214844 " fill-opacity="1" fill-rule="nonzero"/></g></g></g><g clip-path="url(#67ea557b04)"><g clip-path="url(#0a48447dfc)"><g clip-path="url(#088926a1c9)"><path fill="#fff2c3" d="M 415.535156 354.03125 L 484.085938 354.03125 L 484.085938 499.417969 L 415.535156 499.417969 Z M 415.535156 354.03125 " fill-opacity="1" fill-rule="nonzero"/></g></g></g><g clip-path="url(#65433f0d36)"><g clip-path="url(#be07f4939a)"><g clip-path="url(#5138c239bd)"><path fill="#fff2c3" d="M 415.707031 519.179688 L 516.894531 519.179688 L 516.894531 658.261719 L 415.707031 658.261719 Z M 415.707031 519.179688 " fill-opacity="1" fill-rule="nonzero"/></g></g></g><g clip-path="url(#98a4f1a399)"><g clip-path="url(#093c1ba28c)"><g clip-path="url(#c72b16e933)"><path fill="#fff2c3" d="M 499.765625 353.101562 L 568.316406 353.101562 L 568.316406 507.96875 L 499.765625 507.96875 Z M 499.765625 353.101562 " fill-opacity="1" fill-rule="nonzero"/></g></g></g><g clip-path="url(#40320bd329)"><g clip-path="url(#2181a47ba9)"><g clip-path="url(#4826bbe259)"><path fill="#fff2c3" d="M 52.414062 284.214844 L 757.308594 284.214844 L 757.308594 727.875 L 52.414062 727.875 Z M 52.414062 284.214844 " fill-opacity="1" fill-rule="nonzero"/></g></g></g><g clip-path="url(#d59b2220bb)"><g clip-path="url(#5de5b213cc)"><g clip-path="url(#c0df52e0e4)"><path fill="#fff2c3" d="M 52.414062 284.214844 L 757.304688 284.214844 L 757.304688 727.875 L 52.414062 727.875 Z M 52.414062 284.214844 " fill-opacity="1" fill-rule="nonzero"/></g></g></g></svg>